<svg width="58" height="58" viewBox="0 0 58 58" fill="none" xmlns="http://www.w3.org/2000/svg">
<path d="M50.75 26.5833V21.75H45.9167V16.9167C45.9128 15.636 45.4024 14.4088 44.4968 13.5032C43.5912 12.5976 42.364 12.0872 41.0833 12.0833H36.25V7.25H31.4167V12.0833H26.5833V7.25H21.75V12.0833H16.9167C15.636 12.0872 14.4088 12.5976 13.5032 13.5032C12.5976 14.4088 12.0872 15.636 12.0833 16.9167V21.75H7.25V26.5833H12.0833V31.4167H7.25V36.25H12.0833V41.0833C12.0872 42.364 12.5976 43.5912 13.5032 44.4968C14.4088 45.4024 15.636 45.9128 16.9167 45.9167H21.75V50.75H26.5833V45.9167H31.4167V50.75H36.25V45.9167H41.0833C42.364 45.9128 43.5912 45.4024 44.4968 44.4968C45.4024 43.5912 45.9128 42.364 45.9167 41.0833V36.25H50.75V31.4167H45.9167V26.5833H50.75ZM41.0833 41.0833H16.9167V16.9167H41.0833V41.0833Z" fill="#D2D8E8"/>
<path d="M27.4558 19.3333H24.2053L19.3478 38.6666H21.8298L22.9511 34.1354H28.5481L29.6404 38.6666H32.2069L27.4558 19.3333ZM23.2773 32.1996L25.7375 21.6291H25.8487L28.2243 32.1996H23.2773ZM34.423 19.3333H36.8397V38.6666H34.423V19.3333Z" fill="#D2D8E8"/>
</svg>
