<svg width="27" height="28" viewBox="0 0 27 28" fill="none" xmlns="http://www.w3.org/2000/svg">
<path d="M26.5961 17.2647C24.7924 24.5007 17.4612 28.8993 10.2355 27.0955C2.99931 25.2918 -1.39937 17.9609 0.404458 10.7353C2.20818 3.49931 9.52877 -0.899373 16.765 0.904459C23.9906 2.69764 28.4 10.0286 26.5961 17.2647Z" fill="url(#paint0_linear_252_322)"/>
<path d="M19.9281 12.3178C20.1917 10.5248 18.8312 9.55452 16.9539 8.91116L17.5656 6.47483L16.089 6.10569L15.4984 8.47874C15.1082 8.38381 14.7074 8.28889 14.3066 8.20452L14.8972 5.82092L13.4207 5.45178L12.8195 7.87756C12.4925 7.80374 12.1761 7.72991 11.8703 7.65608V7.64553L9.82417 7.13928L9.43394 8.72131C9.43394 8.72131 10.5308 8.97444 10.5097 8.98498C11.1109 9.13264 11.2164 9.53342 11.1953 9.84983L10.4992 12.6237C10.5414 12.6342 10.5941 12.6448 10.6574 12.6764C10.6046 12.6658 10.5519 12.6553 10.4992 12.6342L9.52886 16.5155C9.45503 16.6948 9.26519 16.969 8.85386 16.8635C8.8644 16.8846 7.77808 16.5998 7.77808 16.5998L7.03979 18.2979L8.96987 18.783C9.32847 18.878 9.67651 18.9623 10.0246 19.0573L9.41284 21.5147L10.8894 21.8838L11.5011 19.4475C11.9019 19.553 12.3027 19.6584 12.6824 19.7533L12.0812 22.1791L13.5578 22.5483L14.1695 20.0908C16.7007 20.5655 18.5992 20.3756 19.3902 18.0869C20.0335 16.2518 19.3585 15.1865 18.0296 14.4905C19.0105 14.269 19.7382 13.6256 19.9281 12.3178ZM16.5425 17.0639C16.089 18.899 12.9882 17.9076 11.9863 17.6545L12.7984 14.3955C13.8003 14.6487 17.0277 15.1444 16.5425 17.0639ZM17.0066 12.2862C16.5847 13.9631 14.0113 13.1088 13.1781 12.8979L13.9164 9.94475C14.7496 10.1557 17.439 10.5459 17.0066 12.2862Z" fill="white"/>
<defs>
<linearGradient id="paint0_linear_252_322" x1="1349.27" y1="-0.147999" x2="1349.27" y2="2700.23" gradientUnits="userSpaceOnUse">
<stop stop-color="#F9AA4B"/>
<stop offset="1" stop-color="#F7931A"/>
</linearGradient>
</defs>
</svg>
