<svg width="50" height="42" viewBox="0 0 50 42" fill="none" xmlns="http://www.w3.org/2000/svg">
<path d="M23.4375 33.5V36.625H11.7188C5.15625 36.625 0 31.3125 0 24.9062C0 19.2812 4.0625 14.4375 9.53125 13.3438C9.53125 13.3438 10.4688 13.1875 10.9375 13.1875H11.25L8.75 10.6875L10.9375 8.5L17.1875 14.75L10.9375 21L8.75 18.8125L11.25 16.3125H10.9375C7.1875 16.625 3.75 19.9063 3.28125 23.6563C2.5 28.9688 6.5625 33.5 11.7188 33.5H23.4375ZM28.125 33.5C27.3438 33.5 26.5625 34.2812 26.5625 35.0625C26.5625 35.8438 27.3438 36.625 28.125 36.625C28.9062 36.625 29.6875 35.8438 29.6875 35.0625C29.6875 34.2812 28.9062 33.5 28.125 33.5ZM40.4688 13.3438L40.3125 13.1875C39.0625 6.9375 34.2188 2.09375 27.9688 1C27.0312 0.6875 25.9375 0.6875 25 0.6875C20.4688 0.6875 16.25 2.71875 13.4375 5.84375L15.7813 8.1875C17.6562 6 20.3125 4.28125 23.4375 3.96875C25 3.8125 26.4062 3.8125 27.9688 4.125C32.9688 5.21875 36.5625 9.4375 37.5 14.2812L37.8125 15.8438C37.8125 15.9479 37.8646 16 37.9688 16L39.6875 16.3125C41.5625 16.625 43.2812 17.4062 44.5312 18.6562C46.5625 20.6875 47.5 23.5 46.875 26.3125C46.0938 30.2188 42.9688 33.0312 39.0625 33.3438L41.4062 30.8437L39.0625 28.8125L32.8125 35.0625L39.0625 41.3125L41.25 39.125L38.75 36.625C44.2188 36.3125 48.75 32.4062 49.8438 27.0938C50 26.3125 50 25.6875 50 25.0625C50 19.2812 46.0938 14.4375 40.4688 13.3438Z" fill="#D2D8E8"/>
</svg>
