<svg width="123" height="123" viewBox="0 0 123 123" fill="none" xmlns="http://www.w3.org/2000/svg">
<path fill-rule="evenodd" clip-rule="evenodd" d="M61.4594 10.9657C89.5297 10.9657 112.285 33.7212 112.285 61.7913C112.285 89.8616 89.5297 112.617 61.4594 112.617C33.3893 112.617 10.6338 89.8616 10.6338 61.7913C10.6338 33.7212 33.3893 10.9657 61.4594 10.9657ZM61.4594 16.0482C36.1963 16.0482 15.7163 36.5282 15.7163 61.7913C15.7163 87.0546 36.1963 107.534 61.4594 107.534C86.7227 107.534 107.202 87.0546 107.202 61.7913C107.202 36.5282 86.7227 16.0482 61.4594 16.0482ZM80.7616 35.3041L87.9494 42.492L68.6501 61.7913L87.9494 81.0906L80.7616 88.2785L61.4622 68.9789L42.1989 88.2427L35.0111 81.0549L54.2744 61.7913L35.0111 42.528L42.1989 35.3401L61.4622 54.6034L80.7616 35.3041Z" fill="#A31111"/>
</svg>
