<svg width="41" height="44" viewBox="0 0 41 44" fill="none" xmlns="http://www.w3.org/2000/svg">
<path d="M20.0672 43.095L10.5593 33.5875L14.081 30.0658L20.0672 36.052L35.0078 21.1111L38.5295 24.6328L20.0672 43.095Z" fill="#14B827"/>
<path d="M11.8154 27.582C9.45924 24.396 7.75453 20.7988 6.71632 16.8082C6.01835 14.1251 5.73581 11.6483 5.64908 9.63553C6.06381 9.65756 6.49742 9.6691 6.95131 9.6691C8.18359 9.6691 9.51169 9.58168 10.8978 9.40964C15.3241 8.86098 18.5535 7.59408 20.7156 6.42474C22.8773 7.59408 26.1063 8.86098 30.5312 9.40929C31.9184 9.58133 33.2465 9.66875 34.4788 9.66875C34.9333 9.66875 35.3677 9.65721 35.7827 9.63518C35.7124 11.2647 35.51 13.202 35.0652 15.3071L38.9012 19.2609C41.4504 10.7797 40.2356 3.83358 40.2356 3.83358C40.2356 3.83358 38.8229 5.1414 34.4788 5.1414C33.5143 5.1414 32.4044 5.07671 31.1344 4.919C23.8316 4.01367 20.7159 0.90498 20.7159 0.90498C20.7159 0.90498 17.5999 4.01367 10.2957 4.919C9.02528 5.07671 7.91608 5.1414 6.95131 5.1414C2.60823 5.1414 1.19446 3.83358 1.19446 3.83358C1.19446 3.83358 -1.30857 18.1353 8.40564 30.754L11.8154 27.582Z" fill="#D2D8E8"/>
</svg>
