<svg width="56" height="56" viewBox="0 0 56 56" fill="none" xmlns="http://www.w3.org/2000/svg">
<path d="M28 6.41669V12.8334M13.4167 6.41669V12.8334L16.3334 15.1667M42.5834 6.41669V12.8334L39.6667 15.1667M28 18.6667C23.6682 18.6667 19.5137 20.3875 16.4506 23.4506C13.3875 26.5137 11.6667 30.6682 11.6667 35C11.6667 39.3319 13.3875 43.4863 16.4506 46.5494C19.5137 49.6125 23.6682 51.3334 28 51.3334C32.3319 51.3334 36.4863 49.6125 39.5494 46.5494C42.6125 43.4863 44.3334 39.3319 44.3334 35C44.3334 30.6682 42.6125 26.5137 39.5494 23.4506C36.4863 20.3875 32.3319 18.6667 28 18.6667ZM26.25 6.41669C26.25 6.88082 26.4344 7.32594 26.7626 7.65412C27.0908 7.98231 27.5359 8.16669 28 8.16669C28.4642 8.16669 28.9093 7.98231 29.2375 7.65412C29.5656 7.32594 29.75 6.88082 29.75 6.41669C29.75 5.95256 29.5656 5.50744 29.2375 5.17925C28.9093 4.85106 28.4642 4.66669 28 4.66669C27.5359 4.66669 27.0908 4.85106 26.7626 5.17925C26.4344 5.50744 26.25 5.95256 26.25 6.41669ZM11.6667 6.41669C11.6667 6.88082 11.8511 7.32594 12.1792 7.65412C12.5074 7.98231 12.9526 8.16669 13.4167 8.16669C13.8808 8.16669 14.3259 7.98231 14.6541 7.65412C14.9823 7.32594 15.1667 6.88082 15.1667 6.41669C15.1667 5.95256 14.9823 5.50744 14.6541 5.17925C14.3259 4.85106 13.8808 4.66669 13.4167 4.66669C12.9526 4.66669 12.5074 4.85106 12.1792 5.17925C11.8511 5.50744 11.6667 5.95256 11.6667 6.41669ZM44.3334 6.41669C44.3334 6.88082 44.149 7.32594 43.8208 7.65412C43.4926 7.98231 43.0475 8.16669 42.5834 8.16669C42.1192 8.16669 41.6741 7.98231 41.3459 7.65412C41.0177 7.32594 40.8334 6.88082 40.8334 6.41669C40.8334 5.95256 41.0177 5.50744 41.3459 5.17925C41.6741 4.85106 42.1192 4.66669 42.5834 4.66669C43.0475 4.66669 43.4926 4.85106 43.8208 5.17925C44.149 5.50744 44.3334 5.95256 44.3334 6.41669Z" stroke="#D2D8E8" stroke-width="2" stroke-linecap="round" stroke-linejoin="round"/>
<path d="M24.3554 41.223V28.777M28 28.777V25.6667M28 44.3334V41.223M24.3554 35H31.6447M31.6447 35C32.8534 35 33.8334 36.0454 33.8334 37.3334V38.8897C33.8334 40.1777 32.8534 41.223 31.647 41.223H22.1667M31.6447 35C32.851 35 33.8334 33.9547 33.8334 32.6667V31.1104C33.8334 29.8224 32.8534 28.777 31.647 28.777H22.1667" stroke="#D2D8E8" stroke-width="2" stroke-linecap="round" stroke-linejoin="round"/>
</svg>
