<svg width="123" height="123" viewBox="0 0 123 123" fill="none" xmlns="http://www.w3.org/2000/svg">
<path d="M21.0702 77.0391C29.4913 77.0391 36.3179 70.2125 36.3179 61.7914C36.3179 53.3703 29.4913 46.5437 21.0702 46.5437C12.6491 46.5437 5.82251 53.3703 5.82251 61.7914C5.82251 70.2125 12.6491 77.0391 21.0702 77.0391Z" fill="#FBD53C"/>
<path d="M61.7309 77.0391C70.1519 77.0391 76.9786 70.2125 76.9786 61.7914C76.9786 53.3703 70.1519 46.5437 61.7309 46.5437C53.3098 46.5437 46.4832 53.3703 46.4832 61.7914C46.4832 70.2125 53.3098 77.0391 61.7309 77.0391Z" fill="#FBD53C"/>
<path d="M102.391 77.0391C110.812 77.0391 117.639 70.2125 117.639 61.7914C117.639 53.3703 110.812 46.5437 102.391 46.5437C93.9702 46.5437 87.1436 53.3703 87.1436 61.7914C87.1436 70.2125 93.9702 77.0391 102.391 77.0391Z" fill="#FBD53C"/>
</svg>
