<svg width="489" height="88" viewBox="0 0 489 88" fill="none" xmlns="http://www.w3.org/2000/svg">
<path d="M33.9886 36.863C33.9001 36.0345 33.5269 35.3894 32.8692 34.9277C32.2177 34.466 31.3702 34.2351 30.3266 34.2351C29.593 34.2351 28.9637 34.3458 28.4387 34.5671C27.9138 34.7885 27.5122 35.0889 27.2339 35.4684C26.9556 35.8479 26.8133 36.2811 26.807 36.7681C26.807 37.1729 26.8987 37.5239 27.0821 37.8212C27.2718 38.1185 27.528 38.3714 27.8505 38.5802C28.1731 38.7825 28.5304 38.9533 28.9226 39.0925C29.3147 39.2316 29.71 39.3486 30.1084 39.4435L31.9299 39.8989C32.6636 40.0696 33.3688 40.3005 34.0456 40.5914C34.7286 40.8823 35.3389 41.2492 35.8765 41.6919C36.4205 42.1346 36.8505 42.6691 37.1668 43.2952C37.483 43.9214 37.6411 44.655 37.6411 45.4962C37.6411 46.6346 37.3502 47.6371 36.7683 48.5036C36.1865 49.3637 35.3453 50.0373 34.2448 50.5243C33.1506 51.005 31.8256 51.2453 30.2697 51.2453C28.7581 51.2453 27.4457 51.0113 26.3326 50.5433C25.2258 50.0753 24.3593 49.3922 23.7332 48.4941C23.1133 47.596 22.7781 46.5018 22.7275 45.2116H26.1903C26.2409 45.8883 26.4496 46.4512 26.8164 46.9003C27.1833 47.3493 27.6608 47.6845 28.249 47.9059C28.8435 48.1273 29.5076 48.2379 30.2413 48.2379C31.0065 48.2379 31.677 48.1241 32.2525 47.8964C32.8344 47.6624 33.2898 47.3398 33.6186 46.9287C33.9475 46.5113 34.1151 46.0243 34.1214 45.4677C34.1151 44.9618 33.9665 44.5443 33.6756 44.2154C33.3846 43.8802 32.9767 43.602 32.4517 43.3806C31.9331 43.1529 31.3259 42.9505 30.6302 42.7734L28.4198 42.2042C26.8196 41.7931 25.5547 41.1701 24.6249 40.3353C23.7015 39.4941 23.2398 38.3778 23.2398 36.9863C23.2398 35.8416 23.5497 34.8391 24.1696 33.979C24.7957 33.1188 25.6464 32.4515 26.7216 31.9772C27.7968 31.4965 29.0143 31.2562 30.3741 31.2562C31.7529 31.2562 32.9609 31.4965 33.9981 31.9772C35.0417 32.4515 35.8607 33.1125 36.4553 33.96C37.0498 34.8012 37.3565 35.7688 37.3755 36.863H33.9886ZM47.0783 51.2358C45.6173 51.2358 44.3556 50.9323 43.293 50.3251C42.2368 49.7116 41.4241 48.8451 40.8549 47.7256C40.2856 46.5999 40.001 45.2748 40.001 43.7506C40.001 42.2516 40.2856 40.9361 40.8549 39.804C41.4304 38.6655 42.2336 37.7801 43.2646 37.1476C44.2955 36.5088 45.5067 36.1894 46.8981 36.1894C47.7962 36.1894 48.6437 36.3349 49.4406 36.6258C50.2438 36.9104 50.9522 37.3532 51.5657 37.954C52.1855 38.5549 52.6725 39.3201 53.0267 40.2499C53.3809 41.1733 53.558 42.2738 53.558 43.5514V44.6044H41.6138V42.2896H50.266C50.2597 41.6318 50.1174 41.0468 49.8391 40.5345C49.5608 40.0159 49.1718 39.6079 48.6722 39.3107C48.1788 39.0134 47.6033 38.8648 46.9455 38.8648C46.2435 38.8648 45.6268 39.0355 45.0956 39.3771C44.5643 39.7123 44.15 40.155 43.8528 40.7053C43.5618 41.2492 43.4132 41.8469 43.4069 42.4983V44.519C43.4069 45.3665 43.5618 46.0939 43.8717 46.701C44.1816 47.3019 44.6149 47.7636 45.1715 48.0862C45.728 48.4024 46.3795 48.5605 47.1258 48.5605C47.6254 48.5605 48.0776 48.4909 48.4824 48.3518C48.8872 48.2063 49.2382 47.9944 49.5355 47.7162C49.8327 47.4379 50.0573 47.0932 50.2091 46.6821L53.4157 47.0426C53.2133 47.8901 52.8275 48.6301 52.2583 49.2625C51.6954 49.8887 50.9743 50.3757 50.0952 50.7235C49.2161 51.0651 48.2105 51.2358 47.0783 51.2358ZM59.8977 42.4129V50.9512H56.4634V36.3792H59.7459V38.8553H59.9167C60.2519 38.0394 60.7863 37.3911 61.52 36.9104C62.26 36.4298 63.1739 36.1894 64.2617 36.1894C65.2673 36.1894 66.1433 36.4045 66.8896 36.8345C67.6423 37.2646 68.2241 37.8876 68.6352 38.7035C69.0527 39.5194 69.2582 40.5092 69.2519 41.6729V50.9512H65.8176V42.2042C65.8176 41.2302 65.5646 40.4681 65.0586 39.9178C64.559 39.3676 63.8664 39.0925 62.981 39.0925C62.3801 39.0925 61.8457 39.2253 61.3777 39.4909C60.916 39.7502 60.5523 40.1265 60.2867 40.6199C60.0273 41.1132 59.8977 41.7109 59.8977 42.4129ZM78.1507 51.2074C77.0059 51.2074 75.9813 50.9133 75.0769 50.3251C74.1725 49.7369 73.4578 48.8831 72.9328 47.7636C72.4079 46.6441 72.1454 45.2843 72.1454 43.6842C72.1454 42.0651 72.4111 40.6989 72.9423 39.5858C73.4799 38.4663 74.2041 37.622 75.1149 37.0527C76.0256 36.4772 77.0407 36.1894 78.1602 36.1894C79.014 36.1894 79.7161 36.3349 80.2663 36.6258C80.8166 36.9104 81.253 37.2551 81.5755 37.6599C81.8981 38.0584 82.1479 38.4347 82.325 38.7889H82.4673V31.5218H85.9111V50.9512H82.5337V48.6554H82.325C82.1479 49.0096 81.8918 49.3859 81.5566 49.7843C81.2213 50.1765 80.7786 50.5117 80.2284 50.79C79.6781 51.0682 78.9856 51.2074 78.1507 51.2074ZM79.1089 48.3897C79.8362 48.3897 80.4561 48.1937 80.9684 47.8015C81.4807 47.4031 81.8696 46.8497 82.1353 46.1413C82.4009 45.4329 82.5337 44.6076 82.5337 43.6652C82.5337 42.7228 82.4009 41.9038 82.1353 41.2081C81.8759 40.5123 81.4901 39.9716 80.9778 39.5858C80.4719 39.2 79.8489 39.0071 79.1089 39.0071C78.3436 39.0071 77.7048 39.2063 77.1925 39.6048C76.6802 40.0032 76.2944 40.5535 76.0351 41.2555C75.7758 41.9575 75.6461 42.7608 75.6461 43.6652C75.6461 44.576 75.7758 45.3887 76.0351 46.1034C76.3007 46.8117 76.6897 47.3715 77.202 47.7826C77.7206 48.1873 78.3563 48.3897 79.1089 48.3897ZM112.98 38.0773H109.432C109.331 37.4955 109.144 36.98 108.872 36.531C108.6 36.0756 108.262 35.6898 107.857 35.3735C107.452 35.0573 106.99 34.8201 106.472 34.662C105.96 34.4976 105.406 34.4154 104.812 34.4154C103.755 34.4154 102.819 34.681 102.003 35.2123C101.188 35.7372 100.549 36.5088 100.087 37.5271C99.6254 38.539 99.3945 39.7755 99.3945 41.2365C99.3945 42.7228 99.6254 43.9751 100.087 44.9934C100.555 46.0053 101.194 46.7706 102.003 47.2892C102.819 47.8015 103.752 48.0577 104.802 48.0577C105.384 48.0577 105.928 47.9818 106.434 47.83C106.946 47.6719 107.405 47.441 107.81 47.1375C108.221 46.8339 108.565 46.4607 108.844 46.018C109.128 45.5753 109.324 45.0693 109.432 44.5001L112.98 44.519C112.847 45.4424 112.559 46.3089 112.117 47.1185C111.68 47.928 111.108 48.6427 110.399 49.2625C109.691 49.876 108.863 50.3567 107.914 50.7046C106.965 51.0461 105.912 51.2169 104.755 51.2169C103.047 51.2169 101.523 50.8216 100.182 50.031C98.8411 49.2404 97.7849 48.0988 97.0133 46.6062C96.2417 45.1136 95.8559 43.3237 95.8559 41.2365C95.8559 39.1431 96.2448 37.3532 97.0228 35.8669C97.8007 34.3742 98.8601 33.2326 100.201 32.4421C101.542 31.6515 103.06 31.2562 104.755 31.2562C105.836 31.2562 106.842 31.408 107.772 31.7116C108.701 32.0151 109.53 32.461 110.257 33.0492C110.984 33.6311 111.582 34.3458 112.05 35.1933C112.525 36.0345 112.834 36.9958 112.98 38.0773ZM116.051 50.9512V36.3792H119.381V38.8078H119.533C119.799 37.9667 120.254 37.3184 120.899 36.863C121.551 36.4013 122.294 36.1705 123.129 36.1705C123.318 36.1705 123.53 36.1799 123.764 36.1989C124.005 36.2116 124.204 36.2337 124.362 36.2653V39.4245C124.217 39.3739 123.986 39.3296 123.669 39.2917C123.36 39.2474 123.059 39.2253 122.768 39.2253C122.142 39.2253 121.579 39.3613 121.079 39.6332C120.586 39.8989 120.197 40.2688 119.913 40.7432C119.628 41.2176 119.486 41.7646 119.486 42.3845V50.9512H116.051ZM129.222 56.4158C128.754 56.4158 128.32 56.3778 127.922 56.3019C127.53 56.2323 127.217 56.1501 126.983 56.0552L127.78 53.3799C128.279 53.5254 128.725 53.5949 129.117 53.5886C129.509 53.5823 129.854 53.459 130.151 53.2186C130.455 52.9846 130.711 52.5925 130.92 52.0422L131.214 51.2548L125.93 36.3792H129.573L132.931 47.3841H133.083L136.451 36.3792H140.103L134.269 52.7158C133.997 53.4874 133.636 54.1484 133.187 54.6986C132.738 55.2552 132.188 55.6789 131.537 55.9699C130.891 56.2671 130.12 56.4158 129.222 56.4158ZM142.48 56.4158V36.3792H145.857V38.7889H146.056C146.234 38.4347 146.483 38.0584 146.806 37.6599C147.128 37.2551 147.565 36.9104 148.115 36.6258C148.665 36.3349 149.367 36.1894 150.221 36.1894C151.347 36.1894 152.362 36.4772 153.267 37.0527C154.177 37.622 154.898 38.4663 155.43 39.5858C155.967 40.6989 156.236 42.0651 156.236 43.6842C156.236 45.2843 155.974 46.6441 155.449 47.7636C154.924 48.8831 154.209 49.7369 153.305 50.3251C152.4 50.9133 151.375 51.2074 150.231 51.2074C149.396 51.2074 148.703 51.0682 148.153 50.79C147.603 50.5117 147.16 50.1765 146.825 49.7843C146.496 49.3859 146.24 49.0096 146.056 48.6554H145.914V56.4158H142.48ZM145.848 43.6652C145.848 44.6076 145.981 45.4329 146.246 46.1413C146.518 46.8497 146.907 47.4031 147.413 47.8015C147.925 48.1937 148.545 48.3897 149.273 48.3897C150.031 48.3897 150.667 48.1873 151.179 47.7826C151.692 47.3715 152.078 46.8117 152.337 46.1034C152.602 45.3887 152.735 44.576 152.735 43.6652C152.735 42.7608 152.606 41.9575 152.346 41.2555C152.087 40.5535 151.701 40.0032 151.189 39.6048C150.677 39.2063 150.038 39.0071 149.273 39.0071C148.539 39.0071 147.916 39.2 147.404 39.5858C146.891 39.9716 146.502 40.5123 146.237 41.2081C145.977 41.9038 145.848 42.7228 145.848 43.6652ZM166.454 36.3792V39.0355H158.076V36.3792H166.454ZM160.145 32.8879H163.579V46.5682C163.579 47.0299 163.649 47.3841 163.788 47.6308C163.933 47.8711 164.123 48.0356 164.357 48.1241C164.591 48.2126 164.85 48.2569 165.135 48.2569C165.35 48.2569 165.546 48.2411 165.723 48.2095C165.906 48.1779 166.046 48.1494 166.14 48.1241L166.719 50.8089C166.536 50.8722 166.273 50.9417 165.932 51.0176C165.597 51.0935 165.185 51.1378 164.698 51.1505C163.838 51.1758 163.063 51.0461 162.374 50.7615C161.685 50.4706 161.138 50.0215 160.733 49.4143C160.334 48.8072 160.138 48.0482 160.145 47.1375V32.8879ZM175.525 51.2358C174.102 51.2358 172.869 50.9228 171.826 50.2966C170.782 49.6705 169.972 48.7945 169.397 47.6687C168.828 46.5429 168.543 45.2274 168.543 43.7221C168.543 42.2168 168.828 40.8982 169.397 39.766C169.972 38.6339 170.782 37.7548 171.826 37.1286C172.869 36.5025 174.102 36.1894 175.525 36.1894C176.949 36.1894 178.182 36.5025 179.225 37.1286C180.269 37.7548 181.075 38.6339 181.645 39.766C182.22 40.8982 182.508 42.2168 182.508 43.7221C182.508 45.2274 182.22 46.5429 181.645 47.6687C181.075 48.7945 180.269 49.6705 179.225 50.2966C178.182 50.9228 176.949 51.2358 175.525 51.2358ZM175.544 48.4846C176.316 48.4846 176.961 48.2727 177.48 47.849C177.998 47.4189 178.384 46.8434 178.637 46.1223C178.897 45.4013 179.026 44.5981 179.026 43.7126C179.026 42.8209 178.897 42.0145 178.637 41.2934C178.384 40.5661 177.998 39.9874 177.48 39.5573C176.961 39.1272 176.316 38.9122 175.544 38.9122C174.754 38.9122 174.096 39.1272 173.571 39.5573C173.053 39.9874 172.664 40.5661 172.404 41.2934C172.151 42.0145 172.025 42.8209 172.025 43.7126C172.025 44.5981 172.151 45.4013 172.404 46.1223C172.664 46.8434 173.053 47.4189 173.571 47.849C174.096 48.2727 174.754 48.4846 175.544 48.4846ZM195.057 50.9512L190.94 36.3792H194.44L197.002 46.6252H197.135L199.753 36.3792H203.216L205.834 46.5682H205.976L208.5 36.3792H212.01L207.883 50.9512H204.307L201.574 41.1037H201.375L198.643 50.9512H195.057ZM214.408 50.9512V36.3792H217.842V50.9512H214.408ZM216.135 34.311C215.591 34.311 215.123 34.1307 214.731 33.7702C214.338 33.4034 214.142 32.9638 214.142 32.4515C214.142 31.9329 214.338 31.4934 214.731 31.1328C215.123 30.766 215.591 30.5826 216.135 30.5826C216.685 30.5826 217.153 30.766 217.539 31.1328C217.931 31.4934 218.127 31.9329 218.127 32.4515C218.127 32.9638 217.931 33.4034 217.539 33.7702C217.153 34.1307 216.685 34.311 216.135 34.311ZM228.65 36.3792V39.0355H220.273V36.3792H228.65ZM222.342 32.8879H225.776V46.5682C225.776 47.0299 225.845 47.3841 225.985 47.6308C226.13 47.8711 226.32 48.0356 226.554 48.1241C226.788 48.2126 227.047 48.2569 227.332 48.2569C227.547 48.2569 227.743 48.2411 227.92 48.2095C228.103 48.1779 228.242 48.1494 228.337 48.1241L228.916 50.8089C228.733 50.8722 228.47 50.9417 228.129 51.0176C227.793 51.0935 227.382 51.1378 226.895 51.1505C226.035 51.1758 225.26 51.0461 224.571 50.7615C223.882 50.4706 223.335 50.0215 222.93 49.4143C222.531 48.8072 222.335 48.0482 222.342 47.1375V32.8879ZM235.27 42.4129V50.9512H231.836V31.5218H235.194V38.8553H235.365C235.706 38.0331 236.235 37.3848 236.949 36.9104C237.67 36.4298 238.587 36.1894 239.7 36.1894C240.712 36.1894 241.595 36.4013 242.347 36.8251C243.1 37.2488 243.682 37.8686 244.093 38.6845C244.51 39.5004 244.719 40.4965 244.719 41.6729V50.9512H241.285V42.2042C241.285 41.2239 241.032 40.4618 240.526 39.9178C240.026 39.3676 239.324 39.0925 238.42 39.0925C237.813 39.0925 237.269 39.2253 236.788 39.4909C236.314 39.7502 235.94 40.1265 235.668 40.6199C235.403 41.1132 235.27 41.7109 235.27 42.4129ZM271.629 38.0773H268.081C267.98 37.4955 267.793 36.98 267.521 36.531C267.249 36.0756 266.911 35.6898 266.506 35.3735C266.101 35.0573 265.64 34.8201 265.121 34.662C264.609 34.4976 264.055 34.4154 263.461 34.4154C262.404 34.4154 261.468 34.681 260.653 35.2123C259.837 35.7372 259.198 36.5088 258.736 37.5271C258.274 38.539 258.044 39.7755 258.044 41.2365C258.044 42.7228 258.274 43.9751 258.736 44.9934C259.204 46.0053 259.843 46.7706 260.653 47.2892C261.468 47.8015 262.401 48.0577 263.451 48.0577C264.033 48.0577 264.577 47.9818 265.083 47.83C265.595 47.6719 266.054 47.441 266.459 47.1375C266.87 46.8339 267.214 46.4607 267.493 46.018C267.777 45.5753 267.973 45.0693 268.081 44.5001L271.629 44.519C271.496 45.4424 271.208 46.3089 270.766 47.1185C270.329 47.928 269.757 48.6427 269.049 49.2625C268.34 49.876 267.512 50.3567 266.563 50.7046C265.614 51.0461 264.561 51.2169 263.404 51.2169C261.696 51.2169 260.172 50.8216 258.831 50.031C257.49 49.2404 256.434 48.0988 255.662 46.6062C254.891 45.1136 254.505 43.3237 254.505 41.2365C254.505 39.1431 254.894 37.3532 255.672 35.8669C256.45 34.3742 257.509 33.2326 258.85 32.4421C260.191 31.6515 261.709 31.2562 263.404 31.2562C264.485 31.2562 265.491 31.408 266.421 31.7116C267.35 32.0151 268.179 32.461 268.906 33.0492C269.634 33.6311 270.231 34.3458 270.699 35.1933C271.174 36.0345 271.484 36.9958 271.629 38.0773ZM281.057 51.2358C279.634 51.2358 278.4 50.9228 277.357 50.2966C276.313 49.6705 275.504 48.7945 274.928 47.6687C274.359 46.5429 274.074 45.2274 274.074 43.7221C274.074 42.2168 274.359 40.8982 274.928 39.766C275.504 38.6339 276.313 37.7548 277.357 37.1286C278.4 36.5025 279.634 36.1894 281.057 36.1894C282.48 36.1894 283.713 36.5025 284.757 37.1286C285.8 37.7548 286.607 38.6339 287.176 39.766C287.751 40.8982 288.039 42.2168 288.039 43.7221C288.039 45.2274 287.751 46.5429 287.176 47.6687C286.607 48.7945 285.8 49.6705 284.757 50.2966C283.713 50.9228 282.48 51.2358 281.057 51.2358ZM281.076 48.4846C281.847 48.4846 282.492 48.2727 283.011 47.849C283.53 47.4189 283.915 46.8434 284.168 46.1223C284.428 45.4013 284.557 44.5981 284.557 43.7126C284.557 42.8209 284.428 42.0145 284.168 41.2934C283.915 40.5661 283.53 39.9874 283.011 39.5573C282.492 39.1272 281.847 38.9122 281.076 38.9122C280.285 38.9122 279.627 39.1272 279.102 39.5573C278.584 39.9874 278.195 40.5661 277.935 41.2934C277.683 42.0145 277.556 42.8209 277.556 43.7126C277.556 44.5981 277.683 45.4013 277.935 46.1223C278.195 46.8434 278.584 47.4189 279.102 47.849C279.627 48.2727 280.285 48.4846 281.076 48.4846ZM294.388 42.4129V50.9512H290.954V36.3792H294.237V38.8553H294.407C294.743 38.0394 295.277 37.3911 296.011 36.9104C296.751 36.4298 297.665 36.1894 298.752 36.1894C299.758 36.1894 300.634 36.4045 301.38 36.8345C302.133 37.2646 302.715 37.8876 303.126 38.7035C303.543 39.5194 303.749 40.5092 303.743 41.6729V50.9512H300.308V42.2042C300.308 41.2302 300.055 40.4681 299.549 39.9178C299.05 39.3676 298.357 39.0925 297.472 39.0925C296.871 39.0925 296.336 39.2253 295.868 39.4909C295.407 39.7502 295.043 40.1265 294.777 40.6199C294.518 41.1132 294.388 41.7109 294.388 42.4129ZM314.615 36.3792V39.0355H306V36.3792H314.615ZM308.154 50.9512V35.0036C308.154 34.0232 308.356 33.2073 308.761 32.5559C309.172 31.9045 309.723 31.4175 310.412 31.0949C311.101 30.7723 311.867 30.6111 312.708 30.6111C313.302 30.6111 313.83 30.6585 314.292 30.7534C314.754 30.8482 315.095 30.9336 315.317 31.0095L314.634 33.6659C314.488 33.6216 314.305 33.5773 314.083 33.5331C313.862 33.4825 313.615 33.4572 313.343 33.4572C312.705 33.4572 312.252 33.6121 311.987 33.922C311.727 34.2256 311.598 34.662 311.598 35.2312V50.9512H308.154ZM317.304 50.9512V36.3792H320.739V50.9512H317.304ZM319.031 34.311C318.487 34.311 318.019 34.1307 317.627 33.7702C317.235 33.4034 317.039 32.9638 317.039 32.4515C317.039 31.9329 317.235 31.4934 317.627 31.1328C318.019 30.766 318.487 30.5826 319.031 30.5826C319.581 30.5826 320.049 30.766 320.435 31.1328C320.827 31.4934 321.023 31.9329 321.023 32.4515C321.023 32.9638 320.827 33.4034 320.435 33.7702C320.049 34.1307 319.581 34.311 319.031 34.311ZM329.678 51.2074C328.533 51.2074 327.508 50.9133 326.604 50.3251C325.699 49.7369 324.985 48.8831 324.46 47.7636C323.935 46.6441 323.672 45.2843 323.672 43.6842C323.672 42.0651 323.938 40.6989 324.469 39.5858C325.007 38.4663 325.731 37.622 326.642 37.0527C327.553 36.4772 328.568 36.1894 329.687 36.1894C330.541 36.1894 331.243 36.3349 331.793 36.6258C332.344 36.9104 332.78 37.2551 333.103 37.6599C333.425 38.0584 333.675 38.4347 333.852 38.7889H333.994V31.5218H337.438V50.9512H334.061V48.6554H333.852C333.675 49.0096 333.419 49.3859 333.084 49.7843C332.748 50.1765 332.306 50.5117 331.755 50.79C331.205 51.0682 330.513 51.2074 329.678 51.2074ZM330.636 48.3897C331.363 48.3897 331.983 48.1937 332.495 47.8015C333.008 47.4031 333.397 46.8497 333.662 46.1413C333.928 45.4329 334.061 44.6076 334.061 43.6652C334.061 42.7228 333.928 41.9038 333.662 41.2081C333.403 40.5123 333.017 39.9716 332.505 39.5858C331.999 39.2 331.376 39.0071 330.636 39.0071C329.871 39.0071 329.232 39.2063 328.72 39.6048C328.207 40.0032 327.821 40.5535 327.562 41.2555C327.303 41.9575 327.173 42.7608 327.173 43.6652C327.173 44.576 327.303 45.3887 327.562 46.1034C327.828 46.8117 328.217 47.3715 328.729 47.7826C329.248 48.1873 329.883 48.3897 330.636 48.3897ZM347.549 51.2358C346.088 51.2358 344.826 50.9323 343.764 50.3251C342.707 49.7116 341.895 48.8451 341.325 47.7256C340.756 46.5999 340.472 45.2748 340.472 43.7506C340.472 42.2516 340.756 40.9361 341.325 39.804C341.901 38.6655 342.704 37.7801 343.735 37.1476C344.766 36.5088 345.977 36.1894 347.369 36.1894C348.267 36.1894 349.114 36.3349 349.911 36.6258C350.714 36.9104 351.423 37.3532 352.036 37.954C352.656 38.5549 353.143 39.3201 353.497 40.2499C353.851 41.1733 354.029 42.2738 354.029 43.5514V44.6044H342.084V42.2896H350.737C350.73 41.6318 350.588 41.0468 350.31 40.5345C350.031 40.0159 349.642 39.6079 349.143 39.3107C348.649 39.0134 348.074 38.8648 347.416 38.8648C346.714 38.8648 346.097 39.0355 345.566 39.3771C345.035 39.7123 344.621 40.155 344.323 40.7053C344.032 41.2492 343.884 41.8469 343.877 42.4983V44.519C343.877 45.3665 344.032 46.0939 344.342 46.701C344.652 47.3019 345.085 47.7636 345.642 48.0862C346.199 48.4024 346.85 48.5605 347.596 48.5605C348.096 48.5605 348.548 48.4909 348.953 48.3518C349.358 48.2063 349.709 47.9944 350.006 47.7162C350.303 47.4379 350.528 47.0932 350.68 46.6821L353.886 47.0426C353.684 47.8901 353.298 48.6301 352.729 49.2625C352.166 49.8887 351.445 50.3757 350.566 50.7235C349.687 51.0651 348.681 51.2358 347.549 51.2358ZM360.368 42.4129V50.9512H356.934V36.3792H360.216V38.8553H360.387C360.722 38.0394 361.257 37.3911 361.99 36.9104C362.73 36.4298 363.644 36.1894 364.732 36.1894C365.738 36.1894 366.614 36.4045 367.36 36.8345C368.113 37.2646 368.695 37.8876 369.106 38.7035C369.523 39.5194 369.729 40.5092 369.722 41.6729V50.9512H366.288V42.2042C366.288 41.2302 366.035 40.4681 365.529 39.9178C365.03 39.3676 364.337 39.0925 363.451 39.0925C362.851 39.0925 362.316 39.2253 361.848 39.4909C361.386 39.7502 361.023 40.1265 360.757 40.6199C360.498 41.1132 360.368 41.7109 360.368 42.4129ZM379.57 51.2358C378.115 51.2358 376.866 50.9164 375.823 50.2777C374.785 49.6389 373.985 48.7566 373.422 47.6308C372.866 46.4987 372.587 45.1958 372.587 43.7221C372.587 42.2421 372.872 40.9361 373.441 39.804C374.011 38.6655 374.814 37.7801 375.851 37.1476C376.895 36.5088 378.128 36.1894 379.551 36.1894C380.734 36.1894 381.78 36.4076 382.691 36.844C383.608 37.2741 384.339 37.8844 384.883 38.675C385.427 39.4593 385.737 40.3764 385.812 41.4263H382.53C382.397 40.7242 382.081 40.1392 381.581 39.6712C381.088 39.1968 380.427 38.9596 379.598 38.9596C378.896 38.9596 378.28 39.1494 377.748 39.5289C377.217 39.902 376.803 40.4396 376.506 41.1417C376.215 41.8437 376.069 42.6849 376.069 43.6652C376.069 44.6582 376.215 45.512 376.506 46.2267C376.797 46.9351 377.205 47.4821 377.729 47.868C378.261 48.2474 378.884 48.4372 379.598 48.4372C380.104 48.4372 380.557 48.3423 380.955 48.1526C381.36 47.9565 381.698 47.675 381.97 47.3082C382.242 46.9414 382.429 46.4955 382.53 45.9705H385.812C385.73 47.0015 385.427 47.9154 384.902 48.7123C384.377 49.5029 383.662 50.1227 382.758 50.5718C381.853 51.0145 380.791 51.2358 379.57 51.2358ZM395.084 51.2358C393.623 51.2358 392.361 50.9323 391.298 50.3251C390.242 49.7116 389.429 48.8451 388.86 47.7256C388.291 46.5999 388.006 45.2748 388.006 43.7506C388.006 42.2516 388.291 40.9361 388.86 39.804C389.436 38.6655 390.239 37.7801 391.27 37.1476C392.301 36.5088 393.512 36.1894 394.903 36.1894C395.801 36.1894 396.649 36.3349 397.446 36.6258C398.249 36.9104 398.957 37.3532 399.571 37.954C400.191 38.5549 400.678 39.3201 401.032 40.2499C401.386 41.1733 401.563 42.2738 401.563 43.5514V44.6044H389.619V42.2896H398.271C398.265 41.6318 398.123 41.0468 397.844 40.5345C397.566 40.0159 397.177 39.6079 396.677 39.3107C396.184 39.0134 395.609 38.8648 394.951 38.8648C394.249 38.8648 393.632 39.0355 393.101 39.3771C392.57 39.7123 392.155 40.155 391.858 40.7053C391.567 41.2492 391.418 41.8469 391.412 42.4983V44.519C391.412 45.3665 391.567 46.0939 391.877 46.701C392.187 47.3019 392.62 47.7636 393.177 48.0862C393.733 48.4024 394.385 48.5605 395.131 48.5605C395.631 48.5605 396.083 48.4909 396.488 48.3518C396.892 48.2063 397.243 47.9944 397.541 47.7162C397.838 47.4379 398.063 47.0932 398.214 46.6821L401.421 47.0426C401.219 47.8901 400.833 48.6301 400.264 49.2625C399.701 49.8887 398.98 50.3757 398.1 50.7235C397.221 51.0651 396.216 51.2358 395.084 51.2358ZM406.584 51.1599C406.009 51.1599 405.515 50.9576 405.104 50.5528C404.693 50.148 404.491 49.6547 404.497 49.0728C404.491 48.5036 404.693 48.0166 405.104 47.6118C405.515 47.207 406.009 47.0046 406.584 47.0046C407.141 47.0046 407.625 47.207 408.036 47.6118C408.453 48.0166 408.665 48.5036 408.671 49.0728C408.665 49.4586 408.564 49.8096 408.368 50.1259C408.178 50.4421 407.925 50.6951 407.609 50.8848C407.299 51.0682 406.957 51.1599 406.584 51.1599Z" fill="#D0F1D4"/>
<path d="M415.257 31.5409C333.649 -8.07249 38.3321 -10.2733 12.4032 31.5409C-39.1271 85.4153 294.892 87 294.892 87C294.892 87 489.075 67.3732 415.257 31.5409Z" stroke="#14B827" stroke-width="2"/>
<path d="M405.414 32.1858C324.574 -6.96699 32.0372 -9.14219 6.35236 32.1858C-44.693 85.4338 286.182 87 286.182 87C286.182 87 478.538 67.6014 405.414 32.1858Z" stroke="#14B827" stroke-width="2"/>
</svg>
