<svg width="52" height="52" viewBox="0 0 52 52" fill="none" xmlns="http://www.w3.org/2000/svg">
<path d="M11.9167 21.6666C12.181 21.6666 12.428 21.5431 12.9198 21.2983L16.874 19.331C18.6247 18.4578 19.5 18.0223 19.5 17.3333V8.66665M11.9167 21.6666C11.6523 21.6666 11.4053 21.5431 10.9135 21.2983L6.95933 19.331C5.20866 18.4578 4.33333 18.0223 4.33333 17.3333V8.66665M11.9167 21.6666V13M19.5 8.66665C19.5 7.97765 18.6247 7.53998 16.874 6.66898L12.9198 4.70165C12.428 4.45681 12.1832 4.33331 11.9167 4.33331C11.6523 4.33331 11.4053 4.45681 10.9135 4.70165L6.95933 6.66898C5.20866 7.54215 4.33333 7.97765 4.33333 8.66665M19.5 8.66665C19.5 9.35565 18.6247 9.79331 16.874 10.6643L12.9198 12.6316C12.428 12.8765 12.1832 13 11.9167 13M4.33333 8.66665C4.33333 9.35565 5.20866 9.79331 6.95933 10.6643L10.9135 12.6316C11.4053 12.8765 11.6502 13 11.9167 13M40.0833 21.6666C40.3477 21.6666 40.5947 21.5431 41.0865 21.2983L45.0407 19.331C46.7913 18.4578 47.6667 18.0223 47.6667 17.3333V8.66665M40.0833 21.6666C39.819 21.6666 39.572 21.5431 39.0802 21.2983L35.126 19.331C33.3753 18.4578 32.5 18.0223 32.5 17.3333V8.66665M40.0833 21.6666V13M47.6667 8.66665C47.6667 7.97765 46.7913 7.53998 45.0407 6.66898L41.0865 4.70165C40.5947 4.45681 40.3498 4.33331 40.0833 4.33331C39.819 4.33331 39.572 4.45681 39.0802 4.70165L35.126 6.66898C33.3753 7.54215 32.5 7.97765 32.5 8.66665M47.6667 8.66665C47.6667 9.35565 46.7913 9.79331 45.0407 10.6643L41.0865 12.6316C40.5947 12.8765 40.3498 13 40.0833 13M32.5 8.66665C32.5 9.35565 33.3753 9.79331 35.126 10.6643L39.0802 12.6316C39.572 12.8765 39.8168 13 40.0833 13M24.9167 13H27.0833M4.33333 26V33.5833C4.33333 36.6253 4.33333 38.1485 5.06349 39.2405C5.37973 39.7138 5.78614 40.1202 6.25949 40.4365C7.35149 41.1666 8.87466 41.1666 11.9167 41.1666M47.6667 26V33.5833C47.6667 36.6253 47.6667 38.1485 46.9365 39.2405C46.6203 39.7138 46.2139 40.1202 45.7405 40.4365C44.6485 41.1666 43.1253 41.1666 40.0833 41.1666M26 47.6666C26.2643 47.6666 26.5113 47.5453 27.0032 47.2983L30.9573 45.331C32.708 44.46 33.5833 44.0223 33.5833 43.3333V34.6666M26 47.6666C25.7357 47.6666 25.4887 47.5453 24.9968 47.2983L21.0427 45.331C19.292 44.46 18.4167 44.0223 18.4167 43.3333V34.6666M26 47.6666V39M33.5833 34.6666C33.5833 33.9776 32.708 33.54 30.9573 32.669L27.0032 30.7016C26.5113 30.4546 26.2665 30.3333 26 30.3333C25.7357 30.3333 25.4887 30.4546 24.9968 30.7016L21.0427 32.669C19.292 33.54 18.4167 33.9776 18.4167 34.6666M33.5833 34.6666C33.5833 35.3556 32.708 35.7933 30.9573 36.6643L27.0032 38.6316C26.5113 38.8786 26.2665 39 26 39M18.4167 34.6666C18.4167 35.3556 19.292 35.7933 21.0427 36.6643L24.9968 38.6316C25.4887 38.8786 25.7335 39 26 39" stroke="#D2D8E8" stroke-width="2" stroke-linecap="round" stroke-linejoin="round"/>
</svg>
