<svg width="27" height="28" viewBox="0 0 27 28" fill="none" xmlns="http://www.w3.org/2000/svg">
<path d="M13.5 27.5C20.9558 27.5 27 21.4558 27 14C27 6.54416 20.9558 0.5 13.5 0.5C6.04416 0.5 0 6.54416 0 14C0 21.4558 6.04416 27.5 13.5 27.5Z" fill="#66F9A1"/>
<path d="M8.37403 17.1109C8.46782 17.0196 8.59331 16.9682 8.72418 16.9675H20.8455C20.8944 16.9668 20.9423 16.9808 20.9832 17.0076C21.024 17.0345 21.0559 17.0729 21.0747 17.1181C21.0935 17.1632 21.0983 17.2129 21.0886 17.2608C21.0789 17.3087 21.055 17.3526 21.0202 17.3868L18.6256 19.762C18.5319 19.8536 18.4064 19.9053 18.2754 19.9062H6.15412C6.10526 19.9067 6.05738 19.8925 6.01661 19.8655C5.97585 19.8386 5.94406 19.8001 5.9253 19.755C5.90654 19.7098 5.90168 19.6602 5.91133 19.6122C5.92098 19.5643 5.9447 19.5204 5.97946 19.4861L8.37403 17.1109ZM8.37403 8.23719C8.46782 8.14591 8.59331 8.0945 8.72418 8.09375H20.8455C21.0657 8.09375 21.1762 8.35869 21.0202 8.51394L18.6256 10.8891C18.5318 10.9804 18.4063 11.0318 18.2754 11.0325H6.15412C6.10543 11.0328 6.05777 11.0185 6.01719 10.9916C5.97661 10.9647 5.94494 10.9264 5.92622 10.8814C5.9075 10.8365 5.90257 10.787 5.91205 10.7392C5.92153 10.6914 5.94499 10.6476 5.97946 10.6132L8.37403 8.23719ZM18.6256 12.6458C18.5318 12.5545 18.4063 12.5031 18.2754 12.5023H6.15412C6.10526 12.5019 6.05738 12.5161 6.01661 12.5431C5.97585 12.57 5.94406 12.6085 5.9253 12.6536C5.90654 12.6987 5.90168 12.7484 5.91133 12.7963C5.92098 12.8443 5.9447 12.8882 5.97946 12.9225L8.37403 15.2977C8.46684 15.3897 8.5934 15.4411 8.72418 15.4411H20.8455C20.8944 15.4415 20.9422 15.4274 20.983 15.4004C21.0238 15.3735 21.0556 15.335 21.0743 15.2898C21.0931 15.2447 21.0979 15.195 21.0883 15.1471C21.0786 15.0992 21.0549 15.0553 21.0202 15.0209L18.6256 12.6458Z" fill="white"/>
</svg>
