<svg width="20" height="20" viewBox="0 0 20 20" fill="none" xmlns="http://www.w3.org/2000/svg">
<rect width="20" height="20" rx="10" fill="white"/>
<path d="M13.4408 8.75666C14.0632 9.55582 14.4 10.5404 14.3975 11.5533C14.3985 12.5814 14.052 13.5796 13.4142 14.3858L13.3608 14.4517L13.3483 14.3633C13.3355 14.2907 13.3208 14.2185 13.3042 14.1467C12.9958 12.7667 11.9983 11.58 10.3483 10.6183C9.23667 9.97416 8.59667 9.19749 8.42917 8.31582C8.33881 7.76598 8.3843 7.20239 8.56167 6.67416C8.68667 6.26249 8.88251 5.87416 9.14001 5.52749L9.78417 4.72499C9.81019 4.6928 9.84307 4.66684 9.88041 4.649C9.91776 4.63117 9.95862 4.62191 10 4.62191C10.0414 4.62191 10.0823 4.63117 10.1196 4.649C10.1569 4.66684 10.1898 4.6928 10.2158 4.72499L13.4408 8.75666ZM14.455 7.95416L10.1583 2.57666C10.1394 2.55287 10.1153 2.53366 10.0879 2.52045C10.0605 2.50725 10.0304 2.5004 10 2.5004C9.96958 2.5004 9.93955 2.50725 9.91214 2.52045C9.88472 2.53366 9.86064 2.55287 9.84167 2.57666L5.54334 7.95832L5.53001 7.97166C4.70731 9.0178 4.26135 10.3108 4.26417 11.6417C4.26501 14.875 6.83334 17.5 10 17.5C13.1667 17.5 15.7342 14.875 15.7342 11.6417C15.737 10.3108 15.291 9.0178 14.4683 7.97166L14.455 7.95416ZM6.57167 8.73916L6.95584 8.25832L6.96917 8.34666L7.00001 8.55832C7.25167 9.89499 8.13834 11.0067 9.62501 11.8667C10.9167 12.6208 11.6667 13.4858 11.8833 14.4342C11.9717 14.8308 11.9892 15.2192 11.95 15.5592V15.5808L11.9317 15.5892C11.3317 15.8892 10.6708 16.045 10 16.0442C7.57334 16.0442 5.60167 14.0325 5.60167 11.5533C5.60167 10.4908 5.96251 9.51166 6.57167 8.73916Z" fill="#4BA2FF"/>
</svg>
