<svg width="20" height="20" viewBox="0 0 20 20" fill="none" xmlns="http://www.w3.org/2000/svg">
<path d="M10 20C15.5228 20 20 15.5228 20 10C20 4.47715 15.5228 0 10 0C4.47715 0 0 4.47715 0 10C0 15.5228 4.47715 20 10 20Z" fill="#FACC15"/>
<path d="M12.5135 11.3275C12.5135 10 11.7135 9.545 10.1135 9.355C8.97098 9.20313 8.74286 8.9 8.74286 8.36875C8.74286 7.8375 9.12411 7.49625 9.88536 7.49625C10.571 7.49625 10.9522 7.72375 11.1422 8.29313C11.1622 8.34809 11.1984 8.39565 11.2461 8.42949C11.2938 8.46333 11.3506 8.48182 11.4091 8.4825H12.0185C12.0537 8.48344 12.0887 8.47722 12.1214 8.46422C12.1541 8.45122 12.1839 8.43171 12.2088 8.40688C12.2338 8.38204 12.2534 8.35239 12.2666 8.31973C12.2797 8.28707 12.2861 8.25208 12.2854 8.21688V8.17938C12.2109 7.76744 12.0025 7.39163 11.6924 7.11033C11.3824 6.82902 10.9882 6.65797 10.571 6.62375V5.71375C10.571 5.56188 10.4566 5.44813 10.2666 5.41H9.69473C9.54286 5.41 9.42848 5.52375 9.39036 5.71375V6.58625C8.24723 6.7375 7.52411 7.49625 7.52411 8.445C7.52411 9.69625 8.28536 10.1894 9.88536 10.3794C10.9522 10.5688 11.2947 10.7969 11.2947 11.4038C11.2947 12.01 10.7616 12.4275 10.0379 12.4275C9.04723 12.4275 8.70473 12.0106 8.59036 11.4413C8.55286 11.29 8.43786 11.2138 8.32348 11.2138H7.67598C7.64084 11.2129 7.60588 11.2192 7.57324 11.2322C7.54059 11.2453 7.51092 11.2648 7.48604 11.2896C7.46115 11.3144 7.44156 11.3441 7.42844 11.3767C7.41532 11.4093 7.40896 11.4442 7.40973 11.4794V11.5169C7.56161 12.4656 8.17161 13.1481 9.42848 13.3381V14.2488C9.42848 14.4 9.54286 14.5144 9.73286 14.5519H10.3047C10.4566 14.5519 10.571 14.4381 10.6091 14.2488V13.3375C11.7522 13.1481 12.5135 12.3513 12.5135 11.3269V11.3275Z" fill="white"/>
<path d="M8.05731 15.3106C5.08606 14.2481 3.56231 10.9481 4.66731 8.0275C5.23856 6.43375 6.49544 5.22062 8.05731 4.65125C8.20981 4.57562 8.28544 4.46187 8.28544 4.27188V3.74063C8.28544 3.58938 8.20981 3.47563 8.05731 3.4375C8.01919 3.4375 7.94294 3.4375 7.90481 3.475C7.04758 3.7427 6.25177 4.17733 5.5632 4.75386C4.87463 5.33039 4.30691 6.03743 3.89272 6.83427C3.47852 7.63111 3.22605 8.50201 3.14982 9.39683C3.07359 10.2916 3.17512 11.1927 3.44856 12.0481C4.13356 14.1731 5.77169 15.8044 7.90481 16.4869C8.05731 16.5625 8.20981 16.4869 8.24731 16.335C8.28544 16.2975 8.28544 16.2587 8.28544 16.1831V15.6519C8.28544 15.5381 8.17169 15.3869 8.05731 15.3106ZM12.0948 3.47562C11.9423 3.39937 11.7898 3.47562 11.7523 3.62687C11.7142 3.665 11.7142 3.70312 11.7142 3.77875V4.31C11.7142 4.46187 11.8279 4.61312 11.9423 4.68937C14.9136 5.75187 16.4373 9.05188 15.3323 11.9725C14.7611 13.5662 13.5042 14.7794 11.9423 15.3488C11.7898 15.4244 11.7142 15.5381 11.7142 15.7281V16.2594C11.7142 16.4106 11.7898 16.5244 11.9423 16.5625C11.9804 16.5625 12.0567 16.5625 12.0948 16.525C12.952 16.2573 13.7479 15.8227 14.4364 15.2461C15.125 14.6696 15.6927 13.9626 16.1069 13.1657C16.5211 12.3689 16.7736 11.498 16.8498 10.6032C16.926 9.70835 16.8245 8.80729 16.5511 7.95187C15.8661 5.78937 14.1898 4.15812 12.0948 3.47562Z" fill="white"/>
</svg>
