<svg width="108" height="102" viewBox="0 0 108 102" fill="none" xmlns="http://www.w3.org/2000/svg">
<path d="M54 60.9113C52.6407 60.9113 51.3371 60.3713 50.376 59.4102C49.4148 58.449 48.8748 57.1454 48.8748 55.7861V40.4107C48.8748 39.0514 49.4148 37.7478 50.376 36.7866C51.3371 35.8255 52.6407 35.2855 54 35.2855C55.3593 35.2855 56.6629 35.8255 57.624 36.7866C58.5852 37.7478 59.1251 39.0514 59.1251 40.4107V55.7861C59.1251 57.1454 58.5852 58.449 57.624 59.4102C56.6629 60.3713 55.3593 60.9113 54 60.9113ZM46.3123 73.7242C46.3123 71.6852 47.1222 69.7298 48.5639 68.2881C50.0057 66.8464 51.9611 66.0364 54 66.0364C56.0389 66.0364 57.9943 66.8464 59.436 68.2881C60.8778 69.7298 61.6877 71.6852 61.6877 73.7242C61.6877 75.7631 60.8778 77.7185 59.436 79.1602C57.9943 80.6019 56.0389 81.4119 54 81.4119C51.9611 81.4119 50.0057 80.6019 48.5639 79.1602C47.1222 77.7185 46.3123 75.7631 46.3123 73.7242Z" fill="#A31111"/>
<path d="M44.9284 5.64169C48.7723 -1.66165 59.2276 -1.66165 63.0714 5.64169L105.831 86.8856C109.423 93.7123 104.483 101.913 96.759 101.913H11.2408C3.52741 101.913 -1.41836 93.7123 2.16925 86.8907L44.9284 5.64169ZM96.7642 91.6622L53.9999 10.4132L11.2356 91.6622H96.7642Z" fill="#A31111"/>
</svg>
